<svg xmlns="http://www.w3.org/2000/svg" xmlns:xlink="http://www.w3.org/1999/xlink" width="500" zoomAndPan="magnify" viewBox="0 0 375 374.999991" height="500" preserveAspectRatio="xMidYMid meet" version="1.0"><defs><clipPath id="454b191736"><path d="M 68.4375 0 L 306.9375 0 L 306.9375 375 L 68.4375 375 Z M 68.4375 0 " clip-rule="nonzero"/></clipPath></defs><g clip-path="url(#454b191736)"><path fill="#00adef" d="M 222.578125 233.164062 C 222.578125 220.183594 225.359375 209.367188 230.765625 200.945312 L 176.527344 200.945312 L 176.527344 270.015625 C 176.527344 298.0625 184.175781 319.3125 198.546875 333.371094 C 213.152344 347.667969 235.25 355.007812 263.679688 355.007812 C 265.691406 355.007812 266.925781 355.007812 267.3125 355.007812 C 268.085938 355.007812 269.089844 354.929688 270.324219 354.851562 C 270.710938 354.773438 271.175781 354.773438 271.5625 354.773438 L 286.707031 354.773438 L 286.707031 312.125 L 271.5625 312.125 C 256.03125 312.125 243.824219 307.335938 235.25 298.0625 C 226.902344 289.023438 222.578125 276.199219 222.578125 259.972656 Z M 176.527344 118.503906 L 222.578125 118.503906 L 222.578125 74 L 176.527344 74 Z M 92.542969 0.214844 L 137.664062 0.214844 C 141.375 0.214844 144.386719 3.226562 144.386719 6.9375 L 144.386719 52.058594 C 144.386719 55.765625 141.375 58.78125 137.664062 58.78125 L 92.542969 58.78125 C 88.835938 58.78125 85.820312 55.765625 85.820312 52.058594 L 85.820312 6.9375 C 85.898438 3.226562 88.835938 0.214844 92.542969 0.214844 Z M 72.765625 81.882812 L 102.046875 81.882812 C 104.441406 81.882812 106.375 83.8125 106.375 86.207031 L 106.375 115.566406 C 106.375 117.964844 104.441406 119.894531 102.046875 119.894531 L 72.765625 119.894531 C 70.367188 119.894531 68.4375 117.964844 68.4375 115.566406 L 68.4375 86.207031 C 68.4375 83.890625 70.367188 81.882812 72.765625 81.882812 Z M 296.59375 200.867188 L 271.5625 200.867188 C 261.75 200.867188 254.410156 203.492188 249.773438 208.4375 C 244.984375 213.613281 242.433594 221.960938 242.433594 233.085938 L 242.433594 259.894531 C 242.433594 271.019531 244.90625 279.367188 249.773438 284.542969 C 254.410156 289.566406 261.75 292.113281 271.5625 292.113281 L 296.59375 292.113281 C 302.082031 292.113281 306.5625 296.59375 306.5625 302.082031 L 306.5625 364.585938 C 306.5625 370.074219 302.082031 374.554688 296.59375 374.554688 L 271.484375 374.554688 C 270.480469 374.632812 269.246094 374.632812 267.855469 374.707031 C 265.691406 374.785156 264.222656 374.785156 263.679688 374.785156 C 229.917969 374.785156 203.183594 365.515625 184.71875 347.433594 C 166.484375 329.585938 156.75 303.550781 156.75 269.863281 L 156.75 190.976562 C 156.75 185.492188 161.230469 181.011719 166.714844 181.011719 L 286.78125 181.011719 L 286.78125 138.359375 L 166.5625 138.359375 C 161.074219 138.359375 156.59375 133.878906 156.59375 128.394531 L 156.59375 64.035156 C 156.59375 58.546875 161.074219 54.066406 166.5625 54.066406 L 232.46875 54.066406 C 237.953125 54.066406 242.433594 58.546875 242.433594 64.035156 L 242.433594 118.425781 L 296.59375 118.425781 C 302.082031 118.425781 306.5625 122.90625 306.5625 128.394531 L 306.5625 190.898438 C 306.5625 196.460938 302.082031 200.867188 296.59375 200.867188 Z M 296.59375 200.867188 " fill-opacity="1" fill-rule="evenodd"/></g></svg>